<svg xmlns="http://www.w3.org/2000/svg" width="1000" height="760" viewBox="0 0 1000 760"><defs><linearGradient id="bg"><stop offset="0" stop-color="#f8edf3"/><stop offset="1" stop-color="#fff"/></linearGradient><filter id="shadow"><feDropShadow dx="0" dy="24" stdDeviation="26" flood-opacity=".20"/></filter></defs><rect width="1000" height="760" rx="34" fill="url(#bg)"/><g opacity=".16" stroke="#74133d" fill="none" stroke-width="3"><circle cx="800" cy="160" r="138"/><circle cx="158" cy="614" r="95"/></g><g filter="url(#shadow)" transform="translate(0,10)"><path d="M195 280c31-105 125-171 250-171h170c125 0 219 66 250 171l43 146c22 74-34 148-111 148H263c-77 0-133-74-111-148l43-146Z" fill="#efe4d8" stroke="#d0c0b3" stroke-width="18"/><path d="M308 278c27-62 88-99 164-99h116c76 0 137 37 164 99H308Z" fill="#74123e"/><rect x="260" y="338" width="540" height="94" rx="24" fill="#fffdfa"/><path d="M322 465h416c50 0 90-40 90-90v-13H719c-31 0-55 24-55 55v10H395v-10c0-31-24-55-55-55H232v13c0 50 40 90 90 90Z" fill="#d7cec7"/><rect x="668" y="342" width="136" height="88" rx="18" fill="#74123e"/><text x="736" y="394" text-anchor="middle" font-family="Arial" font-size="24" font-weight="900" fill="#fff">ORTEX</text></g><text x="500" y="653" text-anchor="middle" font-family="Arial" font-size="34" font-weight="900" fill="#221e24">Collarín cervical semirrígido</text><text x="500" y="700" text-anchor="middle" font-family="Arial" font-size="26" font-weight="900" fill="#74133d">REF.015A</text></svg>