<svg xmlns="http://www.w3.org/2000/svg" width="1000" height="760" viewBox="0 0 1000 760"><defs><linearGradient id="bg"><stop offset="0" stop-color="#f8edf3"/><stop offset="1" stop-color="#fff"/></linearGradient><filter id="shadow"><feDropShadow dx="0" dy="24" stdDeviation="26" flood-opacity=".20"/></filter></defs><rect width="1000" height="760" rx="34" fill="url(#bg)"/><g opacity=".16" stroke="#74133d" fill="none" stroke-width="3"><circle cx="800" cy="160" r="138"/><circle cx="158" cy="614" r="95"/></g><g filter="url(#shadow)" transform="translate(0,10)"><path d="M205 330c0-78 63-141 141-141h370c78 0 141 63 141 141v122c0 78-63 141-141 141H346c-78 0-141-63-141-141V330Z" fill="#74123e" stroke="#1d141b" stroke-width="18"/><path d="M265 286h530v74H265z" rx="24" fill="#171217"/><path d="M265 470h530v74H265z" rx="24" fill="#171217"/><text x="530" y="423" text-anchor="middle" font-family="Arial" font-size="34" font-weight="900" fill="#fff">ORTEX</text></g><text x="500" y="653" text-anchor="middle" font-family="Arial" font-size="34" font-weight="900" fill="#221e24">Órtesis de brazo</text><text x="500" y="700" text-anchor="middle" font-family="Arial" font-size="26" font-weight="900" fill="#74133d">XS a XXL</text></svg>