<?xml version="1.0" encoding="UTF-8" standalone="no"?>
<svg
   width="64"
   height="64"
   viewBox="0 0 32 32"
   role="img"
   version="1.1"
   id="svg1"
   sodipodi:docname="pinterest.svg"
   inkscape:version="1.4.3 (0d15f75, 2025-12-25)"
   xmlns:inkscape="http://www.inkscape.org/namespaces/inkscape"
   xmlns:sodipodi="http://sodipodi.sourceforge.net/DTD/sodipodi-0.dtd"
   xmlns="http://www.w3.org/2000/svg"
   xmlns:svg="http://www.w3.org/2000/svg">
  <defs
     id="defs1" />
  <sodipodi:namedview
     id="namedview1"
     pagecolor="#ffffff"
     bordercolor="#000000"
     borderopacity="0.25"
     inkscape:showpageshadow="2"
     inkscape:pageopacity="0.0"
     inkscape:pagecheckerboard="0"
     inkscape:deskcolor="#d1d1d1"
     inkscape:zoom="13.296875"
     inkscape:cx="32"
     inkscape:cy="32"
     inkscape:window-width="1920"
     inkscape:window-height="1111"
     inkscape:window-x="-9"
     inkscape:window-y="-9"
     inkscape:window-maximized="1"
     inkscape:current-layer="svg1" />
  <circle
     cx="16"
     cy="16"
     r="14.5"
     fill="rgba(255,255,255,.03)"
     stroke="#ff3b8b"
     stroke-opacity=".62"
     stroke-width="1.2"
     id="circle1" />
  <g
     fill="#ffffff"
     stroke="none"
     id="g1"
     transform="matrix(0.86581566,0,0,0.88032799,0.72990039,1.3811556)">
    <path
       d="M 16.2,4 C 9.7,4 6,8.4 6,13.1 c 0,2.9 1.5,5.4 4,6.3 0.5,0.2 0.8,0 0.9,-0.5 l 0.4,-1.6 c 0.1,-0.4 0,-0.6 -0.3,-1 -1,-1.1 -1.4,-2.3 -1.4,-3.8 0,-3.8 2.8,-7.1 7.3,-7.1 4,0 6.2,2.4 6.2,5.8 0,4.3 -1.9,8 -4.8,8 -1.6,0 -2.7,-1.3 -2.4,-2.9 0.5,-1.9 1.4,-4.1 1.4,-5.5 0,-1.3 -0.7,-2.3 -2.1,-2.3 -1.7,0 -3,1.7 -3,4 0,1.5 0.5,2.5 0.5,2.5 l -2,8.7 c -0.6,2.5 -0.1,5.6 0,5.9 0.1,0.2 0.3,0.2 0.4,0.1 0.2,-0.2 2.2,-2.8 2.9,-5.3 l 0.8,-3.3 c 0.8,1.4 2.7,2.6 4.8,2.6 6.3,0 10.5,-5.7 10.5,-13.3 C 26.8,7.5 22,4 16.2,4 Z"
       id="path1" />
  </g>
</svg>
