<?xml version="1.0" encoding="UTF-8" standalone="no"?>
<svg
   width="64"
   height="64"
   viewBox="0 0 32 32"
   role="img"
   version="1.1"
   id="svg1"
   sodipodi:docname="snapchat.svg"
   inkscape:version="1.4.3 (0d15f75, 2025-12-25)"
   xmlns:inkscape="http://www.inkscape.org/namespaces/inkscape"
   xmlns:sodipodi="http://sodipodi.sourceforge.net/DTD/sodipodi-0.dtd"
   xmlns="http://www.w3.org/2000/svg"
   xmlns:svg="http://www.w3.org/2000/svg">
  <defs
     id="defs1" />
  <sodipodi:namedview
     id="namedview1"
     pagecolor="#ffffff"
     bordercolor="#000000"
     borderopacity="0.25"
     inkscape:showpageshadow="2"
     inkscape:pageopacity="0.0"
     inkscape:pagecheckerboard="0"
     inkscape:deskcolor="#d1d1d1"
     inkscape:zoom="13.296875"
     inkscape:cx="32"
     inkscape:cy="32"
     inkscape:window-width="1920"
     inkscape:window-height="1111"
     inkscape:window-x="-9"
     inkscape:window-y="-9"
     inkscape:window-maximized="1"
     inkscape:current-layer="svg1" />
  <circle
     cx="16"
     cy="16"
     r="14.5"
     fill="rgba(255,255,255,.03)"
     stroke="#ff3b8b"
     stroke-opacity=".62"
     stroke-width="1.2"
     id="circle1" />
  <g
     fill="#ffffff"
     stroke="none"
     id="g1"
     transform="translate(-0.11280846,1.1280846)">
    <path
       d="m 16,4 c 3.8,0 5.9,2.9 5.9,6.8 v 2.3 c 0,0.8 0.5,1.2 1.2,1.2 0.8,0 1.4,-0.4 2.1,-0.8 0.4,-0.2 0.7,0.2 0.6,0.6 -0.6,1.5 -2,2.4 -3.5,2.9 0.2,0.8 1,2.3 4.1,3 0.6,0.1 0.8,0.7 0.3,1.1 -1,0.8 -2.3,0.9 -3.4,1 -0.7,0.1 -1.2,0.3 -1.7,1 -0.9,1.4 -2.3,1.1 -3.5,0.7 -0.8,-0.3 -1.5,-0.5 -2.1,-0.5 -0.6,0 -1.3,0.2 -2.1,0.5 -1.1,0.4 -2.6,0.7 -3.5,-0.7 -0.5,-0.7 -1,-1 -1.7,-1 C 7.7,22 6.3,21.9 5.3,21.1 4.8,20.7 5,20.1 5.6,20 8.7,19.3 9.5,17.8 9.7,17 8.3,16.5 6.8,15.6 6.2,14.1 6,13.7 6.4,13.3 6.8,13.5 c 0.7,0.4 1.3,0.8 2.1,0.8 0.8,0 1.2,-0.5 1.2,-1.2 V 10.8 C 10.1,6.9 12.2,4 16,4 Z"
       id="path1" />
  </g>
</svg>
