<?xml version="1.0" encoding="UTF-8" standalone="no"?>
<svg
   width="64"
   height="64"
   viewBox="0 0 32 32"
   role="img"
   version="1.1"
   id="svg2"
   sodipodi:docname="telegram.svg"
   inkscape:version="1.4.3 (0d15f75, 2025-12-25)"
   xmlns:inkscape="http://www.inkscape.org/namespaces/inkscape"
   xmlns:sodipodi="http://sodipodi.sourceforge.net/DTD/sodipodi-0.dtd"
   xmlns="http://www.w3.org/2000/svg"
   xmlns:svg="http://www.w3.org/2000/svg">
  <defs
     id="defs2" />
  <sodipodi:namedview
     id="namedview2"
     pagecolor="#ffffff"
     bordercolor="#000000"
     borderopacity="0.25"
     inkscape:showpageshadow="2"
     inkscape:pageopacity="0.0"
     inkscape:pagecheckerboard="0"
     inkscape:deskcolor="#d1d1d1"
     inkscape:zoom="13.296875"
     inkscape:cx="32"
     inkscape:cy="32"
     inkscape:window-width="1920"
     inkscape:window-height="1111"
     inkscape:window-x="-9"
     inkscape:window-y="-9"
     inkscape:window-maximized="1"
     inkscape:current-layer="svg2" />
  <circle
     cx="16"
     cy="16"
     r="14.5"
     fill="rgba(255,255,255,.03)"
     stroke="#ff3b8b"
     stroke-opacity=".62"
     stroke-width="1.2"
     id="circle1" />
  <g
     fill="#ffffff"
     stroke="none"
     id="g2"
     transform="matrix(0.81147109,0,0,0.81479552,1.0280542,2.5767244)">
    <path
       d="M 28,6 4.3,15.2 C 2.7,15.8 2.7,16.7 4,17.1 l 6.1,1.9 2.3,7.3 c 0.3,0.9 0.1,1.1 0.9,1.1 0.6,0 0.9,-0.3 1.3,-0.6 l 3.1,-3 6.4,4.8 c 1.2,0.7 2.1,0.3 2.4,-1.1 L 30.7,7.6 C 31.1,5.9 30,5.2 28.8,5.8 Z"
       id="path1" />
    <path
       d="M 10.4,18.5 24.2,9.8 c 0.6,-0.4 1.2,-0.2 0.7,0.3 l -11.8,10.7 -0.5,4.8 z"
       fill="#ff3b8b"
       id="path2" />
  </g>
</svg>
