<?xml version="1.0" encoding="UTF-8" standalone="no"?>
<svg
   width="64"
   height="64"
   viewBox="0 0 32 32"
   role="img"
   version="1.1"
   id="svg1"
   sodipodi:docname="vimeo.svg"
   inkscape:version="1.4.3 (0d15f75, 2025-12-25)"
   xmlns:inkscape="http://www.inkscape.org/namespaces/inkscape"
   xmlns:sodipodi="http://sodipodi.sourceforge.net/DTD/sodipodi-0.dtd"
   xmlns="http://www.w3.org/2000/svg"
   xmlns:svg="http://www.w3.org/2000/svg">
  <defs
     id="defs1" />
  <sodipodi:namedview
     id="namedview1"
     pagecolor="#ffffff"
     bordercolor="#000000"
     borderopacity="0.25"
     inkscape:showpageshadow="2"
     inkscape:pageopacity="0.0"
     inkscape:pagecheckerboard="0"
     inkscape:deskcolor="#d1d1d1"
     inkscape:zoom="13.296875"
     inkscape:cx="32"
     inkscape:cy="32"
     inkscape:window-width="1920"
     inkscape:window-height="1111"
     inkscape:window-x="-9"
     inkscape:window-y="-9"
     inkscape:window-maximized="1"
     inkscape:current-layer="svg1" />
  <circle
     cx="16"
     cy="16"
     r="14.5"
     fill="rgba(255,255,255,.03)"
     stroke="#ff3b8b"
     stroke-opacity=".62"
     stroke-width="1.2"
     id="circle1" />
  <g
     fill="#ffffff"
     stroke="none"
     id="g1"
     transform="matrix(0.80084918,0,0,0.79548664,5.3770721,3.4583483)">
    <path
       d="m 27,11 c -0.1,2.8 -2.1,6.8 -6,11.8 -4,5.3 -7.4,7.9 -10.2,7.9 -1.7,0 -3.2,-1.6 -4.4,-4.9 L 4,17 C 3.1,13.8 2.1,12.1 1,12.1 c -0.2,0 -0.8,0.3 -1.7,1 l -1,-1.3 3.4,-3.1 C 3.3,7.3 4.5,6.6 5.3,6.5 c 1.9,-0.2 3.1,1.1 3.6,4 0.5,3.1 0.9,5 1.1,5.7 0.6,2.6 1.4,3.9 2.2,3.9 0.6,0 1.6,-1 2.9,-3 1.3,-2 2,-3.5 2.1,-4.6 0.2,-1.7 -0.5,-2.6 -2.1,-2.6 -0.7,0 -1.5,0.2 -2.2,0.5 1.5,-4.8 4.3,-7.1 8.6,-6.9 3.1,0.1 4.6,2 4.5,5.5 z"
       id="path1" />
  </g>
</svg>
