<?xml version="1.0" encoding="UTF-8" standalone="no"?>
<svg
   width="64"
   height="64"
   viewBox="0 0 32 32"
   role="img"
   version="1.1"
   id="svg2"
   sodipodi:docname="whatsapp.svg"
   inkscape:version="1.4.3 (0d15f75, 2025-12-25)"
   xmlns:inkscape="http://www.inkscape.org/namespaces/inkscape"
   xmlns:sodipodi="http://sodipodi.sourceforge.net/DTD/sodipodi-0.dtd"
   xmlns="http://www.w3.org/2000/svg"
   xmlns:svg="http://www.w3.org/2000/svg">
  <defs
     id="defs2" />
  <sodipodi:namedview
     id="namedview2"
     pagecolor="#ffffff"
     bordercolor="#000000"
     borderopacity="0.25"
     inkscape:showpageshadow="2"
     inkscape:pageopacity="0.0"
     inkscape:pagecheckerboard="0"
     inkscape:deskcolor="#d1d1d1"
     inkscape:zoom="13.296875"
     inkscape:cx="32"
     inkscape:cy="32"
     inkscape:window-width="1920"
     inkscape:window-height="1111"
     inkscape:window-x="-9"
     inkscape:window-y="-9"
     inkscape:window-maximized="1"
     inkscape:current-layer="svg2" />
  <circle
     cx="16"
     cy="16"
     r="14.5"
     fill="rgba(255,255,255,.03)"
     stroke="#ff3b8b"
     stroke-opacity=".62"
     stroke-width="1.2"
     id="circle1" />
  <g
     fill="#ffffff"
     stroke="none"
     id="g2"
     transform="matrix(0.8449881,0,0,0.85056357,3.0623271,1.3472252)">
    <path
       d="M 16,4.5 A 11,11 0 0 0 6.6,21.2 L 5.3,27 11.2,25.5 A 11,11 0 1 0 16,4.5 Z"
       fill="none"
       stroke="#ffffff"
       stroke-width="2"
       id="path1" />
    <path
       d="M 11.5,10.4 C 11.2,9.8 10.9,9.8 10.6,9.8 H 9.8 c -0.3,0 -0.7,0.1 -1,0.5 -0.4,0.4 -1.3,1.3 -1.3,3.2 0,1.9 1.4,3.7 1.6,4 0.2,0.3 2.7,4.4 6.7,6 3.2,1.3 3.9,1 4.7,0.8 0.7,-0.2 2.2,-0.9 2.6,-1.9 0.3,-0.9 0.3,-1.8 0.2,-2 -0.1,-0.2 -0.4,-0.3 -0.8,-0.5 L 20,18.7 c -0.4,-0.2 -0.7,-0.2 -1,0.2 l -1.1,1.4 c -0.2,0.3 -0.5,0.3 -0.8,0.1 -0.4,-0.2 -1.6,-0.6 -3.1,-1.9 -1.1,-1 -1.9,-2.3 -2.1,-2.6 -0.2,-0.4 0,-0.6 0.2,-0.8 l 0.6,-0.7 c 0.2,-0.2 0.3,-0.4 0.5,-0.7 0.2,-0.3 0.1,-0.5 0,-0.7 z"
       id="path2" />
  </g>
</svg>
