<?xml version="1.0" encoding="UTF-8" standalone="no"?>
<svg
   width="64"
   height="64"
   viewBox="0 0 32 32"
   role="img"
   version="1.1"
   id="svg2"
   sodipodi:docname="youtube.svg"
   inkscape:version="1.4.3 (0d15f75, 2025-12-25)"
   xmlns:inkscape="http://www.inkscape.org/namespaces/inkscape"
   xmlns:sodipodi="http://sodipodi.sourceforge.net/DTD/sodipodi-0.dtd"
   xmlns="http://www.w3.org/2000/svg"
   xmlns:svg="http://www.w3.org/2000/svg">
  <defs
     id="defs2" />
  <sodipodi:namedview
     id="namedview2"
     pagecolor="#ffffff"
     bordercolor="#000000"
     borderopacity="0.25"
     inkscape:showpageshadow="2"
     inkscape:pageopacity="0.0"
     inkscape:pagecheckerboard="0"
     inkscape:deskcolor="#d1d1d1"
     inkscape:zoom="13.296875"
     inkscape:cx="32"
     inkscape:cy="32"
     inkscape:window-width="1920"
     inkscape:window-height="1111"
     inkscape:window-x="-9"
     inkscape:window-y="-9"
     inkscape:window-maximized="1"
     inkscape:current-layer="svg2" />
  <circle
     cx="16"
     cy="16"
     r="14.5"
     fill="rgba(255,255,255,.03)"
     stroke="#ff3b8b"
     stroke-opacity=".62"
     stroke-width="1.2"
     id="circle1" />
  <g
     fill="#ffffff"
     stroke="none"
     id="g2"
     transform="matrix(0.94329734,0,0,0.90358251,0.94484546,1.5050769)">
    <path
       d="M 28,11.2 A 3.4,3.4 0 0 0 25.6,8.8 C 23.5,8.2 16,8.2 16,8.2 c 0,0 -7.5,0 -9.6,0.6 A 3.4,3.4 0 0 0 4,11.2 35,35 0 0 0 3.4,16 35,35 0 0 0 4,20.8 3.4,3.4 0 0 0 6.4,23.2 c 2.1,0.6 9.6,0.6 9.6,0.6 0,0 7.5,0 9.6,-0.6 A 3.4,3.4 0 0 0 28,20.8 35,35 0 0 0 28.6,16 35,35 0 0 0 28,11.2 Z"
       id="path1" />
    <path
       d="M 13.5,19.8 V 12.2 L 20.2,16 Z"
       fill="#ff3b8b"
       id="path2" />
  </g>
</svg>
